<svg data-name="Group 2" xmlns="http://www.w3.org/2000/svg" width="55.864" height="64.041"><defs><clipPath id="a"><path data-name="Rectangle 7" fill="#fff" d="M0 0h55.864v64.041H0z"/></clipPath></defs><g data-name="Group 1" clip-path="url(#a)" fill="#fff"><path data-name="Path 1" d="M17.55 20.721h-1.767a2.6 2.6 0 0 0-2.6 2.6v26.517a2.6 2.6 0 0 0 2.6 2.6h1.767a2.6 2.6 0 0 0 2.6-2.6V23.324a2.6 2.6 0 0 0-2.6-2.6"/><path data-name="Path 2" d="M28.816 20.092h-1.765a2.6 2.6 0 0 0-2.6 2.6v38.746a2.6 2.6 0 0 0 2.6 2.6h1.765a2.6 2.6 0 0 0 2.6-2.6V22.695a2.6 2.6 0 0 0-2.6-2.6"/><path data-name="Path 3" d="M39.488 20.092h-1.767a2.6 2.6 0 0 0-2.6 2.6v17.25a2.6 2.6 0 0 0 2.6 2.6h1.767a2.6 2.6 0 0 0 2.6-2.6V22.695a2.6 2.6 0 0 0-2.6-2.6"/><path data-name="Path 4" d="M49.203 4.37V2.6a2.6 2.6 0 0 0-2.6-2.6H9.267a2.6 2.6 0 0 0-2.6 2.6v1.77a2.6 2.6 0 0 0 2.6 2.6h37.334a2.6 2.6 0 0 0 2.6-2.6"/><path data-name="Path 5" d="M49.2 9.885H6.663C2.836 10.516 0 14.298 0 18.862c0 5.01 3.538 9.07 7.906 9.07h.023a2.245 2.245 0 0 0 2.193-2.269v-1.275a2.246 2.246 0 0 0-1.256-1.992c-1.68-.856-2.745-2.122-2.745-3.534a3.187 3.187 0 0 1 .541-1.91H49.2a3.073 3.073 0 0 1 .539 1.873c.042 1.412-.985 2.708-2.638 3.614a2.247 2.247 0 0 0-1.2 2.028l.038 1.274a2.245 2.245 0 0 0 2.26 2.2h.023c4.366-.131 7.781-4.294 7.631-9.3-.136-4.561-2.814-8.24-6.657-8.756"/></g></svg>